<mxfile host="65bd71144e">
    <diagram id="iV_1vlyEYh0cKpFy-sop" name="Page-1">
        <mxGraphModel dx="2287" dy="1388" grid="1" gridSize="8" guides="1" tooltips="1" connect="1" arrows="1" fold="1" page="0" pageScale="1" pageWidth="850" pageHeight="1100" background="none" math="0" shadow="0">
            <root>
                <mxCell id="0"/>
                <mxCell id="1" parent="0"/>
                <mxCell id="2" value="&lt;font size=&quot;1&quot; style=&quot;&quot;&gt;&lt;b style=&quot;font-size: 27px;&quot;&gt;Diamonds Dataset Analysis!&lt;/b&gt;&lt;/font&gt;" style="rounded=1;whiteSpace=wrap;fontFamily=Comic Sans MS;labelBackgroundColor=none;labelBorderColor=none;html=1;fillColor=#1A1A1A;strokeColor=#00FFFF;shadow=1;" parent="1" vertex="1">
                    <mxGeometry x="-23" y="-216" width="374" height="80" as="geometry"/>
                </mxCell>
                <mxCell id="3" value="" style="endArrow=classic;html=1;" parent="1" source="2" target="4" edge="1">
                    <mxGeometry width="50" height="50" relative="1" as="geometry">
                        <mxPoint x="184" y="110" as="sourcePoint"/>
                        <mxPoint x="472" y="-24" as="targetPoint"/>
                        <Array as="points"/>
                    </mxGeometry>
                </mxCell>
                <mxCell id="6" style="edgeStyle=none;html=1;fontSize=17;" parent="1" source="4" target="4" edge="1">
                    <mxGeometry relative="1" as="geometry">
                        <mxPoint x="464" y="-24" as="targetPoint"/>
                    </mxGeometry>
                </mxCell>
                <mxCell id="4" value="&lt;span style=&quot;font-size: 18px;&quot;&gt;&lt;b style=&quot;&quot;&gt;Create a new environment&lt;br style=&quot;&quot;&gt;called streamlit_env&lt;br style=&quot;&quot;&gt;&lt;br style=&quot;&quot;&gt;conda create -n streamlit_env&lt;br style=&quot;font-size: 17px;&quot;&gt;&lt;/b&gt;&lt;/span&gt;" style="rounded=1;whiteSpace=wrap;fontFamily=Comic Sans MS;labelBackgroundColor=none;labelBorderColor=none;html=1;fillColor=#1A1A1A;strokeColor=#FF0000;shadow=1;fontSize=17;" parent="1" vertex="1">
                    <mxGeometry x="248" y="-96" width="288" height="96" as="geometry"/>
                </mxCell>
                <mxCell id="7" value="" style="endArrow=classic;html=1;entryX=0.486;entryY=0.074;entryDx=0;entryDy=0;entryPerimeter=0;" parent="1" target="8" edge="1">
                    <mxGeometry width="50" height="50" relative="1" as="geometry">
                        <mxPoint x="159.9999999999999" y="-140" as="sourcePoint"/>
                        <mxPoint x="160" y="-64" as="targetPoint"/>
                        <Array as="points"/>
                    </mxGeometry>
                </mxCell>
                <mxCell id="8" value="&lt;font style=&quot;font-size: 18px;&quot;&gt;&lt;br&gt;&lt;b style=&quot;border-color: rgb(0, 0, 0); color: rgb(240, 240, 240); font-family: &amp;quot;Comic Sans MS&amp;quot;; font-style: normal; font-variant-ligatures: normal; font-variant-caps: normal; letter-spacing: normal; orphans: 2; text-align: center; text-indent: 0px; text-transform: none; widows: 2; word-spacing: 0px; -webkit-text-stroke-width: 0px; background-color: rgb(24, 20, 29); text-decoration-thickness: initial; text-decoration-style: initial; text-decoration-color: initial;&quot;&gt;Install the required modules&lt;br style=&quot;border-color: rgb(0, 0, 0);&quot;&gt;conda install python -y&lt;br style=&quot;border-color: rgb(0, 0, 0);&quot;&gt;&lt;br style=&quot;border-color: rgb(0, 0, 0);&quot;&gt;pip install streamlit&lt;br style=&quot;border-color: rgb(0, 0, 0);&quot;&gt;pip install pandas&amp;nbsp;&lt;br style=&quot;border-color: rgb(0, 0, 0);&quot;&gt;pip install numpy&amp;nbsp;&lt;br style=&quot;border-color: rgb(0, 0, 0);&quot;&gt;pip install streamlit&lt;br style=&quot;border-color: rgb(0, 0, 0);&quot;&gt;pip install matplotlib&lt;/b&gt;&lt;br&gt;&lt;/font&gt;" style="shape=hexagon;perimeter=hexagonPerimeter2;whiteSpace=wrap;html=1;fixedSize=1;fontSize=17;strokeColor=#FFFF00;" parent="1" vertex="1">
                    <mxGeometry x="-56" y="-96" width="280" height="216" as="geometry"/>
                </mxCell>
                <mxCell id="9" value="&lt;font face=&quot;Comic Sans MS&quot;&gt;&lt;span style=&quot;font-size: 17px;&quot;&gt;&lt;b&gt;Import the libraries&lt;br&gt;import streamlit as st&lt;br&gt;import pandas as pd&lt;br&gt;import numpu as np&lt;br&gt;&lt;/b&gt;&lt;/span&gt;&lt;/font&gt;" style="shape=document;whiteSpace=wrap;html=1;boundedLbl=1;strokeColor=#006600;" parent="1" vertex="1">
                    <mxGeometry x="-376" y="-24" width="240" height="136" as="geometry"/>
                </mxCell>
                <mxCell id="10" value="" style="endArrow=classic;html=1;entryX=0.547;entryY=-0.025;entryDx=0;entryDy=0;entryPerimeter=0;" parent="1" source="2" target="9" edge="1">
                    <mxGeometry width="50" height="50" relative="1" as="geometry">
                        <mxPoint x="24.004174757281646" y="-140" as="sourcePoint"/>
                        <mxPoint x="199.77116504854376" y="-16" as="targetPoint"/>
                        <Array as="points"/>
                    </mxGeometry>
                </mxCell>
                <mxCell id="11" value="" style="curved=1;endArrow=classic;html=1;fontSize=16;exitX=0.244;exitY=0.987;exitDx=0;exitDy=0;exitPerimeter=0;" parent="1" source="9" target="12" edge="1">
                    <mxGeometry width="50" height="50" relative="1" as="geometry">
                        <mxPoint x="-184" y="168" as="sourcePoint"/>
                        <mxPoint x="-56" y="256" as="targetPoint"/>
                        <Array as="points">
                            <mxPoint x="-128" y="160"/>
                            <mxPoint x="-78" y="154"/>
                            <mxPoint x="-128" y="104"/>
                            <mxPoint x="-16" y="136"/>
                            <mxPoint x="-24" y="240"/>
                        </Array>
                    </mxGeometry>
                </mxCell>
                <mxCell id="12" value="&lt;font style=&quot;font-size: 18px;&quot;&gt;&lt;br style=&quot;border-color: rgb(0, 0, 0); color: rgb(240, 240, 240); font-family: Helvetica; font-style: normal; font-variant-ligatures: normal; font-variant-caps: normal; font-weight: 400; letter-spacing: normal; orphans: 2; text-align: center; text-indent: 0px; text-transform: none; widows: 2; word-spacing: 0px; -webkit-text-stroke-width: 0px; background-color: rgb(24, 20, 29); text-decoration-thickness: initial; text-decoration-style: initial; text-decoration-color: initial;&quot;&gt;&lt;/font&gt;&lt;font style=&quot;font-size: 18px;&quot; face=&quot;Comic Sans MS&quot;&gt;&lt;b style=&quot;&quot;&gt;&lt;font style=&quot;font-size: 18px;&quot;&gt;Create a title, In that title,&lt;br&gt;write the name of the app, the&lt;br&gt;author that created the app&lt;br&gt;and the present Date and time!&lt;br&gt;&lt;/font&gt;&lt;br&gt;&lt;/b&gt;&lt;/font&gt;" style="shape=parallelogram;perimeter=parallelogramPerimeter;whiteSpace=wrap;html=1;fixedSize=1;strokeColor=#3333FF;fontSize=16;" parent="1" vertex="1">
                    <mxGeometry x="-504" y="160" width="304" height="144" as="geometry"/>
                </mxCell>
                <mxCell id="13" value="&lt;font style=&quot;font-size: 20px;&quot;&gt;&lt;br style=&quot;border-color: rgb(0, 0, 0); color: rgb(240, 240, 240); font-family: Helvetica; font-style: normal; font-variant-ligatures: normal; font-variant-caps: normal; font-weight: 400; letter-spacing: normal; orphans: 2; text-align: center; text-indent: 0px; text-transform: none; widows: 2; word-spacing: 0px; -webkit-text-stroke-width: 0px; text-decoration-thickness: initial; text-decoration-style: initial; text-decoration-color: initial; background-color: rgb(24, 20, 29);&quot;&gt;&lt;font style=&quot;font-size: 20px;&quot; face=&quot;Comic Sans MS&quot;&gt;&lt;b style=&quot;&quot;&gt;Add a sidebar, and in that sidebar we have added three options. Do as such in the code!&lt;br&gt;&lt;br&gt;&lt;/b&gt;&lt;/font&gt;&lt;/font&gt;" style="shape=tape;whiteSpace=wrap;html=1;strokeColor=#660066;" parent="1" vertex="1">
                    <mxGeometry x="-48" y="152" width="528" height="288" as="geometry"/>
                </mxCell>
                <mxCell id="15" value="" style="curved=1;endArrow=classic;html=1;fontSize=16;entryX=0;entryY=0.69;entryDx=0;entryDy=0;entryPerimeter=0;" parent="1" source="12" target="13" edge="1">
                    <mxGeometry width="50" height="50" relative="1" as="geometry">
                        <mxPoint x="-165.44000000000005" y="328.00199999999995" as="sourcePoint"/>
                        <mxPoint x="-72.40449438202245" y="478.28235955056175" as="targetPoint"/>
                        <Array as="points">
                            <mxPoint x="-120" y="393.77"/>
                            <mxPoint x="-70" y="387.77"/>
                            <mxPoint x="-120" y="337.77"/>
                            <mxPoint x="-8" y="369.77"/>
                            <mxPoint x="-16" y="473.77"/>
                        </Array>
                    </mxGeometry>
                </mxCell>
                <mxCell id="16" value="&lt;br style=&quot;border-color: rgb(0, 0, 0); color: rgb(240, 240, 240); font-family: Helvetica; font-size: 18px; font-style: normal; font-variant-ligatures: normal; font-variant-caps: normal; font-weight: 400; letter-spacing: normal; orphans: 2; text-align: center; text-indent: 0px; text-transform: none; widows: 2; word-spacing: 0px; -webkit-text-stroke-width: 0px; text-decoration-thickness: initial; text-decoration-style: initial; text-decoration-color: initial; background-color: rgb(24, 20, 29);&quot;&gt;&lt;font style=&quot;border-color: rgb(0, 0, 0); color: rgb(240, 240, 240); font-size: 18px; font-style: normal; font-variant-ligatures: normal; font-variant-caps: normal; font-weight: 400; letter-spacing: normal; orphans: 2; text-align: center; text-indent: 0px; text-transform: none; widows: 2; word-spacing: 0px; -webkit-text-stroke-width: 0px; background-color: rgb(24, 20, 29); text-decoration-thickness: initial; text-decoration-style: initial; text-decoration-color: initial;&quot; face=&quot;Comic Sans MS&quot;&gt;&lt;b style=&quot;border-color: rgb(0, 0, 0);&quot;&gt;Load the dataset of your choice and create an overview of the dataset like check shape and duplicated values&lt;br&gt;&lt;br style=&quot;border-color: rgb(0, 0, 0);&quot;&gt;&lt;/b&gt;&lt;/font&gt;" style="shape=callout;whiteSpace=wrap;html=1;perimeter=calloutPerimeter;strokeColor=#FFCCE6;fontSize=18;size=0;position=0.95;" parent="1" vertex="1">
                    <mxGeometry x="400" y="24" width="269.09" height="160" as="geometry"/>
                </mxCell>
                <mxCell id="17" value="" style="shape=flexArrow;endArrow=classic;html=1;fontSize=18;fillColor=#d0cee2;strokeColor=#56517e;" parent="1" edge="1">
                    <mxGeometry width="50" height="50" relative="1" as="geometry">
                        <mxPoint x="396.4545454545455" y="224" as="sourcePoint"/>
                        <mxPoint x="435" y="176" as="targetPoint"/>
                        <Array as="points">
                            <mxPoint x="411" y="184"/>
                        </Array>
                    </mxGeometry>
                </mxCell>
                <mxCell id="18" value="&lt;font style=&quot;font-size: 18px;&quot;&gt;&lt;br style=&quot;border-color: rgb(0, 0, 0); color: rgb(240, 240, 240); font-family: Helvetica; font-style: normal; font-variant-ligatures: normal; font-variant-caps: normal; font-weight: 400; letter-spacing: normal; orphans: 2; text-align: center; text-indent: 0px; text-transform: none; widows: 2; word-spacing: 0px; -webkit-text-stroke-width: 0px; text-decoration-thickness: initial; text-decoration-style: initial; text-decoration-color: initial; background-color: rgb(24, 20, 29);&quot;&gt;&lt;font style=&quot;border-color: rgb(0, 0, 0); color: rgb(240, 240, 240); font-style: normal; font-variant-ligatures: normal; font-variant-caps: normal; font-weight: 400; letter-spacing: normal; orphans: 2; text-align: center; text-indent: 0px; text-transform: none; widows: 2; word-spacing: 0px; -webkit-text-stroke-width: 0px; text-decoration-thickness: initial; text-decoration-style: initial; text-decoration-color: initial; background-color: rgb(24, 20, 29); font-size: 18px;&quot; face=&quot;Comic Sans MS&quot;&gt;&lt;b style=&quot;border-color: rgb(0, 0, 0);&quot;&gt;&amp;nbsp;Do visualizations and create different &lt;br&gt;types of plots&amp;nbsp;&lt;/b&gt;&lt;/font&gt;&lt;/font&gt;" style="ellipse;shape=cloud;whiteSpace=wrap;html=1;strokeColor=#CC0000;fontSize=18;" parent="1" vertex="1">
                    <mxGeometry x="669.09" y="112" width="420" height="280" as="geometry"/>
                </mxCell>
                <mxCell id="19" value="" style="curved=1;endArrow=classic;html=1;fontSize=18;exitX=0;exitY=0;exitDx=134.545;exitDy=160;exitPerimeter=0;entryX=0.109;entryY=0.723;entryDx=0;entryDy=0;entryPerimeter=0;" parent="1" source="16" target="18" edge="1">
                    <mxGeometry width="50" height="50" relative="1" as="geometry">
                        <mxPoint x="600" y="338" as="sourcePoint"/>
                        <mxPoint x="712" y="360" as="targetPoint"/>
                        <Array as="points">
                            <mxPoint x="592" y="240"/>
                            <mxPoint x="680" y="400"/>
                            <mxPoint x="640" y="248"/>
                            <mxPoint x="600" y="288"/>
                            <mxPoint x="616" y="416"/>
                            <mxPoint x="696" y="360"/>
                        </Array>
                    </mxGeometry>
                </mxCell>
                <mxCell id="20" value="&lt;br style=&quot;border-color: rgb(0, 0, 0); color: rgb(240, 240, 240); font-family: Helvetica; font-size: 18px; font-style: normal; font-variant-ligatures: normal; font-variant-caps: normal; font-weight: 400; letter-spacing: normal; orphans: 2; text-align: center; text-indent: 0px; text-transform: none; widows: 2; word-spacing: 0px; -webkit-text-stroke-width: 0px; text-decoration-thickness: initial; text-decoration-style: initial; text-decoration-color: initial; background-color: rgb(24, 20, 29);&quot;&gt;&lt;font style=&quot;border-color: rgb(0, 0, 0); color: rgb(240, 240, 240); font-size: 18px; font-style: normal; font-variant-ligatures: normal; font-variant-caps: normal; font-weight: 400; letter-spacing: normal; orphans: 2; text-align: center; text-indent: 0px; text-transform: none; widows: 2; word-spacing: 0px; -webkit-text-stroke-width: 0px; text-decoration-thickness: initial; text-decoration-style: initial; text-decoration-color: initial; background-color: rgb(24, 20, 29);&quot; face=&quot;Comic Sans MS&quot;&gt;&lt;b style=&quot;border-color: rgb(0, 0, 0);&quot;&gt;&amp;nbsp;Describe the dataset and perform basic eda analysis like encoding, outliers removal etc and etc.&lt;br&gt;&lt;/b&gt;&lt;/font&gt;" style="shape=step;perimeter=stepPerimeter;whiteSpace=wrap;html=1;fixedSize=1;strokeColor=#994C00;fontSize=16;" parent="1" vertex="1">
                    <mxGeometry x="696" y="-72" width="376" height="152" as="geometry"/>
                </mxCell>
                <mxCell id="24" value="" style="shape=flexArrow;endArrow=classic;html=1;fontSize=16;fillColor=#b0e3e6;strokeColor=#0e8088;" parent="1" edge="1">
                    <mxGeometry width="50" height="50" relative="1" as="geometry">
                        <mxPoint x="704" y="136" as="sourcePoint"/>
                        <mxPoint x="776" y="112" as="targetPoint"/>
                        <Array as="points"/>
                    </mxGeometry>
                </mxCell>
            </root>
        </mxGraphModel>
    </diagram>
</mxfile>